<?xml version="1.0" encoding="UTF-8" standalone="no"?>
<!-- Generator: Adobe Illustrator 15.0.0, SVG Export Plug-In . SVG Version: 6.00 Build 0)  -->

<svg
   xmlns:dc="http://purl.org/dc/elements/1.1/"
   xmlns:cc="http://creativecommons.org/ns#"
   xmlns:rdf="http://www.w3.org/1999/02/22-rdf-syntax-ns#"
   xmlns:svg="http://www.w3.org/2000/svg"
   xmlns="http://www.w3.org/2000/svg"
   xmlns:sodipodi="http://sodipodi.sourceforge.net/DTD/sodipodi-0.dtd"
   xmlns:inkscape="http://www.inkscape.org/namespaces/inkscape"
   version="1.1"
   x="0px"
   y="0px"
   width="235px"
   height="235px"
   viewBox="0 0 235 235"
   style="enable-background:new 0 0 235 235;"
   xml:space="preserve"
   id="svg38"
   sodipodi:docname="Round_Landmark_Icon_Village.svg"
   inkscape:version="0.92.4 (5da689c313, 2019-01-14)"><metadata
   id="metadata44"><rdf:RDF><cc:Work
       rdf:about=""><dc:format>image/svg+xml</dc:format><dc:type
         rdf:resource="http://purl.org/dc/dcmitype/StillImage" /><dc:title /></cc:Work></rdf:RDF></metadata><defs
   id="defs42">
	
	
	
	
	
	
	
	
</defs><sodipodi:namedview
   pagecolor="#ffffff"
   bordercolor="#666666"
   borderopacity="1"
   objecttolerance="10"
   gridtolerance="10"
   guidetolerance="10"
   inkscape:pageopacity="0"
   inkscape:pageshadow="2"
   inkscape:window-width="1288"
   inkscape:window-height="893"
   id="namedview40"
   showgrid="false"
   showborder="false"
   inkscape:pagecheckerboard="true"
   inkscape:zoom="4.0170213"
   inkscape:cx="6.6881434"
   inkscape:cy="-14.273326"
   inkscape:window-x="0"
   inkscape:window-y="0"
   inkscape:window-maximized="0"
   inkscape:current-layer="svg38" />
<rect
   y="171"
   x="0"
   id="rect2"
   height="64"
   width="64"
   style="fill:#b1b1b1;stroke-width:0.27234042;opacity:1"
   inkscape:export-xdpi="96"
   inkscape:export-ydpi="96" /><path
   inkscape:connector-curvature="0"
   id="path4"
   d="m 32.000001,176.03884 c -14.890486,0 -26.9614307,12.07095 -26.9614307,26.96143 0,14.89022 12.0709447,26.96143 26.9614307,26.96143 14.890213,0 26.96143,-12.07121 26.96143,-26.96143 0,-14.89048 -12.071217,-26.96143 -26.96143,-26.96143 z m 0,50.24055 c -12.85692,0 -23.2793881,-10.42247 -23.2793881,-23.27912 0,-12.85692 10.4227411,-23.27938 23.2793881,-23.27938 12.856647,0 23.279387,10.42274 23.279387,23.27938 0,12.85665 -10.42274,23.27912 -23.279387,23.27912 z"
   style="fill:#e3e3e3;stroke-width:0.27234042" /><path
   inkscape:connector-curvature="0"
   id="path6"
   d="m 53.712886,203.00027 c 0,11.99115 -9.720919,21.71207 -21.712613,21.71207 -11.991966,0 -21.713158,-9.72065 -21.713158,-21.71207 0,-11.99196 9.720919,-21.71343 21.713158,-21.71343 11.991421,0 21.712613,9.72147 21.712613,21.71343 z"
   style="fill:#55ddff;stroke-width:0.27234042" /><ellipse
   id="ellipse8"
   ry="3.9110808"
   rx="18.671932"
   cy="208.7276"
   cx="32"
   style="fill:#54b948;stroke-width:0.27234042" /><path
   inkscape:connector-curvature="0"
   id="path10"
   d="m 43.09406,205.71442 c -1.617157,-0.45154 -3.384647,-6.99507 -10.229379,-6.99507 -6.844459,0 -10.680374,6.31803 -12.560613,6.99507 2.783047,0.8271 16.396801,1.80507 22.789992,0 z"
   style="fill:#295f2f;stroke-width:0.27234042" /><g
   id="g18"
   transform="matrix(0.27234043,0,0,0.27234043,0,171)">
		<rect
   id="rect12"
   height="14.914"
   width="7.4559999"
   style="fill:#5d140b"
   y="109.256"
   x="75.037003" />
		<polygon
   id="polygon14"
   points="111.124,146.264 69.513,146.264 69.513,121.355 90.319,114.227 111.124,121.355 "
   style="fill:#d3d5d6" />
		<polygon
   id="polygon16"
   points="113.701,118.462 90.319,111.65 66.938,118.462 66.938,125.274 90.319,118.462 113.701,125.274 "
   style="fill:#352200" />
	</g><g
   id="g26"
   transform="matrix(0.27234043,0,0,0.27234043,0,171)">
		<rect
   id="rect20"
   height="11.352"
   width="5.6760001"
   style="fill:#5d140b"
   y="82.196999"
   x="107.911" />
		<polygon
   id="polygon22"
   points="135.381,110.367 103.707,110.367 103.707,91.407 119.544,85.981 135.381,91.407 "
   style="fill:#d3d5d6" />
		<polygon
   id="polygon24"
   points="137.343,89.205 119.544,84.02 101.746,89.205 101.746,94.39 119.544,89.205 137.343,94.39 "
   style="fill:#352200" />
	</g><g
   id="g34"
   transform="matrix(0.27234043,0,0,0.27234043,0,171)">
		<rect
   id="rect28"
   height="14.914"
   width="7.4559999"
   style="fill:#5d140b"
   y="103.732"
   x="132.481" />
		<polygon
   id="polygon30"
   points="168.569,140.74 126.958,140.74 126.958,115.832 147.765,108.704 168.569,115.832 "
   style="fill:#d3d5d6" />
		<polygon
   id="polygon32"
   points="171.146,112.938 147.765,106.126 124.382,112.938 124.382,119.75 147.765,112.938 171.146,119.75 "
   style="fill:#352200" />
	</g>
<g
   id="Layer_1">
</g>
<rect
   inkscape:export-ydpi="96"
   inkscape:export-xdpi="96"
   style="opacity:1;fill:#b1b1b1;stroke-width:0.27234042"
   width="64"
   height="64"
   id="rect829"
   x="-77.171608"
   y="223.02859" /><path
   style="fill:#e3e3e3;stroke-width:0.27234042"
   d="m -45.171609,228.06744 c -14.890486,0 -26.96143,12.07095 -26.96143,26.96143 0,14.89022 12.070944,26.96143 26.96143,26.96143 14.890213,0 26.96143,-12.07121 26.96143,-26.96143 0,-14.89048 -12.071217,-26.96143 -26.96143,-26.96143 z m 0,50.24055 c -12.85692,0 -23.279388,-10.42247 -23.279388,-23.27912 0,-12.85692 10.422741,-23.27938 23.279388,-23.27938 12.856647,0 23.279387,10.42274 23.279387,23.27938 0,12.85665 -10.42274,23.27912 -23.279387,23.27912 z"
   id="path831"
   inkscape:connector-curvature="0" /><path
   style="fill:#0066ff;stroke-width:0.27234042"
   d="m -23.458724,255.02887 c 0,11.99115 -9.720919,21.71207 -21.712613,21.71207 -11.991966,0 -21.713158,-9.72065 -21.713158,-21.71207 0,-11.99196 9.720919,-21.71343 21.713158,-21.71343 11.991421,0 21.712613,9.72147 21.712613,21.71343 z"
   id="path833"
   inkscape:connector-curvature="0" /><ellipse
   style="fill:#54b948;stroke-width:0.27234042"
   cx="-45.171608"
   cy="260.7562"
   rx="18.671932"
   ry="3.9110808"
   id="ellipse835" /><path
   style="fill:#295f2f;stroke-width:0.27234042"
   d="m -34.07755,257.74302 c -1.617157,-0.45154 -3.384647,-6.99507 -10.229379,-6.99507 -6.844459,0 -10.680374,6.31803 -12.560613,6.99507 2.783047,0.8271 16.396801,1.80507 22.789992,0 z"
   id="path837"
   inkscape:connector-curvature="0" /><g
   transform="matrix(0.27234043,0,0,0.27234043,-77.17161,223.0286)"
   id="g845">
		<rect
   x="75.037003"
   y="109.256"
   style="fill:#5d140b"
   width="7.4559999"
   height="14.914"
   id="rect839" />
		<polygon
   style="fill:#d3d5d6"
   points="69.513,146.264 69.513,121.355 90.319,114.227 111.124,121.355 111.124,146.264 "
   id="polygon841" />
		<polygon
   style="fill:#352200"
   points="90.319,111.65 66.938,118.462 66.938,125.274 90.319,118.462 113.701,125.274 113.701,118.462 "
   id="polygon843" />
	</g><g
   transform="matrix(0.27234043,0,0,0.27234043,-77.17161,223.0286)"
   id="g853">
		<rect
   x="107.911"
   y="82.196999"
   style="fill:#5d140b"
   width="5.6760001"
   height="11.352"
   id="rect847" />
		<polygon
   style="fill:#d3d5d6"
   points="103.707,110.367 103.707,91.407 119.544,85.981 135.381,91.407 135.381,110.367 "
   id="polygon849" />
		<polygon
   style="fill:#352200"
   points="119.544,84.02 101.746,89.205 101.746,94.39 119.544,89.205 137.343,94.39 137.343,89.205 "
   id="polygon851" />
	</g><g
   transform="matrix(0.27234043,0,0,0.27234043,-77.17161,223.0286)"
   id="g861">
		<rect
   x="132.481"
   y="103.732"
   style="fill:#5d140b"
   width="7.4559999"
   height="14.914"
   id="rect855" />
		<polygon
   style="fill:#d3d5d6"
   points="126.958,140.74 126.958,115.832 147.765,108.704 168.569,115.832 168.569,140.74 "
   id="polygon857" />
		<polygon
   style="fill:#352200"
   points="147.765,106.126 124.382,112.938 124.382,119.75 147.765,112.938 171.146,119.75 171.146,112.938 "
   id="polygon859" />
	</g><rect
   y="243.19279"
   x="1.4936458"
   id="rect863"
   height="64"
   width="64"
   style="opacity:1;fill:#b1b1b1;stroke-width:0.27234042"
   inkscape:export-xdpi="96"
   inkscape:export-ydpi="96" /><path
   inkscape:connector-curvature="0"
   id="path865"
   d="m 33.493645,248.23163 c -14.890486,0 -26.9614302,12.07095 -26.9614302,26.96143 0,14.89022 12.0709442,26.96143 26.9614302,26.96143 14.890213,0 26.96143,-12.07121 26.96143,-26.96143 0,-14.89048 -12.071217,-26.96143 -26.96143,-26.96143 z m 0,50.24055 c -12.85692,0 -23.279388,-10.42247 -23.279388,-23.27912 0,-12.85692 10.422741,-23.27938 23.279388,-23.27938 12.856647,0 23.279387,10.42274 23.279387,23.27938 0,12.85665 -10.42274,23.27912 -23.279387,23.27912 z"
   style="fill:#e3e3e3;stroke-width:0.27234042" /><path
   inkscape:connector-curvature="0"
   id="path867"
   d="m 55.20653,275.19306 c 0,11.99115 -9.720919,21.71207 -21.712613,21.71207 -11.991966,0 -21.713158,-9.72065 -21.713158,-21.71207 0,-11.99196 9.720919,-21.71343 21.713158,-21.71343 11.991421,0 21.712613,9.72147 21.712613,21.71343 z"
   style="fill:#d35f8d;stroke-width:0.27234042" /><ellipse
   id="ellipse869"
   ry="3.9110808"
   rx="18.671932"
   cy="280.92038"
   cx="33.493645"
   style="fill:#54b948;stroke-width:0.27234042" /><path
   inkscape:connector-curvature="0"
   id="path871"
   d="m 44.587704,277.90721 c -1.617157,-0.45154 -3.384647,-6.99507 -10.229379,-6.99507 -6.844459,0 -10.680374,6.31803 -12.560613,6.99507 2.783047,0.8271 16.396801,1.80507 22.789992,0 z"
   style="fill:#295f2f;stroke-width:0.27234042" /><g
   id="g879"
   transform="matrix(0.27234043,0,0,0.27234043,1.4936438,243.19279)">
		<rect
   id="rect873"
   height="14.914"
   width="7.4559999"
   style="fill:#5d140b"
   y="109.256"
   x="75.037003" />
		<polygon
   id="polygon875"
   points="69.513,121.355 90.319,114.227 111.124,121.355 111.124,146.264 69.513,146.264 "
   style="fill:#d3d5d6" />
		<polygon
   id="polygon877"
   points="66.938,118.462 66.938,125.274 90.319,118.462 113.701,125.274 113.701,118.462 90.319,111.65 "
   style="fill:#352200" />
	</g><g
   id="g887"
   transform="matrix(0.27234043,0,0,0.27234043,1.4936438,243.19279)">
		<rect
   id="rect881"
   height="11.352"
   width="5.6760001"
   style="fill:#5d140b"
   y="82.196999"
   x="107.911" />
		<polygon
   id="polygon883"
   points="103.707,91.407 119.544,85.981 135.381,91.407 135.381,110.367 103.707,110.367 "
   style="fill:#d3d5d6" />
		<polygon
   id="polygon885"
   points="101.746,89.205 101.746,94.39 119.544,89.205 137.343,94.39 137.343,89.205 119.544,84.02 "
   style="fill:#352200" />
	</g><g
   id="g895"
   transform="matrix(0.27234043,0,0,0.27234043,1.4936438,243.19279)">
		<rect
   id="rect889"
   height="14.914"
   width="7.4559999"
   style="fill:#5d140b"
   y="103.732"
   x="132.481" />
		<polygon
   id="polygon891"
   points="126.958,115.832 147.765,108.704 168.569,115.832 168.569,140.74 126.958,140.74 "
   style="fill:#d3d5d6" />
		<polygon
   id="polygon893"
   points="124.382,112.938 124.382,119.75 147.765,112.938 171.146,119.75 171.146,112.938 147.765,106.126 "
   style="fill:#352200" />
	</g></svg>